<svg xmlns="http://www.w3.org/2000/svg" viewBox="0 0 64 64">
  <rect width="64" height="64" rx="12" fill="#FBF8F3"/>
  <rect x="28" y="4" width="8" height="56" fill="#DA291C"/>
  <rect x="4" y="28" width="56" height="8" fill="#DA291C"/>
  <rect x="4" y="4" width="24" height="24" fill="none"/>
  <rect x="36" y="4" width="24" height="24" fill="none"/>
  <rect x="4" y="36" width="24" height="24" fill="none"/>
  <rect x="36" y="36" width="24" height="24" fill="none"/>
  <g fill="#DA291C">
    <circle cx="16" cy="11" r="3"/><rect x="13" y="11" width="6" height="8"/><rect x="11" y="14" width="10" height="3"/>
    <circle cx="48" cy="11" r="3"/><rect x="45" y="11" width="6" height="8"/><rect x="43" y="14" width="10" height="3"/>
    <circle cx="16" cy="43" r="3"/><rect x="13" y="43" width="6" height="8"/><rect x="11" y="46" width="10" height="3"/>
    <circle cx="48" cy="43" r="3"/><rect x="45" y="43" width="6" height="8"/><rect x="43" y="46" width="10" height="3"/>
  </g>
</svg>
